# xmcd CD database file
#
# Track frame offsets:
#	150
#	19625
#	34757
#	45925
#	58102
#	75160
#	94847
#	111195
#	123470
#	137162
#	150187
#	162102
#	177720
#	191372
#
# Disc length: 2680 seconds
#
# Revision: 2
# Processed by: cddbd v1.5.2PL0 Copyright (c) Steve Scherf et al.
# Submitted via: CDex 1.70beta2
#
DISCID=a50a760e
DTITLE=Vorius - 想い出の軽音楽でリラクゼーション　クラリネット
DYEAR=1900
DGENRE=Jazz
TTITLE0=鈴懸けの径
TTITLE1=小さな花
TTITLE2=ユー・アー・マイ・サンシャイン
TTITLE3=踊り明かそう
TTITLE4=スターダスト
TTITLE5=ス・ワンダフル
TTITLE6=二人でお茶を
TTITLE7=テネシー・ワルツ
TTITLE8=小雨降る径
TTITLE9=バラ色の人生
TTITLE10=チャオ・チャオ・バンビーナ
TTITLE11=ヴォラーレ
TTITLE12=南国の夜
TTITLE13=夜は恋人
EXTD=
EXTT0=
EXTT1=
EXTT2=
EXTT3=
EXTT4=
EXTT5=
EXTT6=
EXTT7=
EXTT8=
EXTT9=
EXTT10=
EXTT11=
EXTT12=
EXTT13=
PLAYORDER=
